<svg width="149" height="40" viewBox="0 0 149 40" fill="none" xmlns="http://www.w3.org/2000/svg">
<path d="M37.6141 34.3559C33.7565 33.3473 28.5345 32.7903 22.9346 32.7903C10.7901 32.7903 3.05771 35.2688 2.37061 37.6982H43.4962C43.1453 36.4712 41.0054 35.2467 37.6141 34.3559Z" fill="#60B45E"/>
<path d="M2.68451 17.0901C2.44089 17.9157 2.31612 18.7717 2.31396 19.6324V26.9452C5.81083 24.5427 12.7579 23.4115 19.5848 23.1391C14.4782 19.0263 9.01323 17.0803 2.68451 17.0901Z" fill="#60B45E"/>
<path d="M17.9285 19.1071C19.7092 20.2453 21.3845 21.5404 22.9345 22.977C24.5467 21.4807 26.2959 20.139 28.1589 18.9697C27.5029 18.2632 26.706 17.7021 25.8197 17.3226C24.9333 16.9431 23.9773 16.7538 23.0132 16.7667C22.0491 16.7797 21.0985 16.9947 20.2227 17.3978C19.3468 17.8009 18.5653 18.3832 17.9285 19.1071Z" fill="#D8B236"/>
<path d="M37.6139 26.9572C33.7563 25.9486 28.5343 25.394 22.9344 25.394C10.1984 25.394 2.32129 28.1204 2.32129 30.6455V34.3558C6.39483 31.5583 15.148 30.4835 22.9344 30.4835C30.7207 30.4835 39.4813 31.5583 43.5475 34.3558V30.6455C43.5548 29.3105 41.334 27.9314 37.6139 26.9572Z" fill="#60B45E"/>
<path d="M43.555 26.9525V19.6324C43.5544 18.7719 43.4313 17.9159 43.1894 17.0901C36.8607 17.0901 31.4104 19.0238 26.2866 23.1464C33.111 23.4188 40.0581 24.5403 43.555 26.9525Z" fill="#60B45E"/>
<path d="M41.0888 10.3515L29.5675 2.12588C27.6321 0.743264 25.3131 0 22.9345 0C20.556 0 18.2369 0.743264 16.3015 2.12588L4.76801 10.3515C3.29388 11.4092 2.09263 12.8025 1.26354 14.4163C0.434457 16.03 0.00134351 17.818 0 19.6323V40H45.8691V19.6323C45.8663 17.8169 45.4313 16.0283 44.6001 14.4144C43.7688 12.8005 42.5652 11.4078 41.0888 10.3515ZM6.13485 12.2361L9.37405 9.92205L9.18756 10.1674L15.5923 13.414L11.1752 8.62882L15.6095 5.46078L18.1592 8.73925L16.8586 4.56755L17.6512 4.00069C18.8499 3.14762 20.2376 2.59778 21.6953 2.39827L23.067 9.9564L24.4241 2.43998C25.7925 2.66634 27.091 3.20271 28.2203 4.00805L29.2559 4.74423L28.2375 8.54048L30.3773 5.54667L34.7601 8.6779L30.9859 13.1122L36.5956 9.98831L39.7538 12.2361C40.7137 12.9225 41.5305 13.7893 42.1587 14.7882C38.0043 14.8748 33.9242 15.9062 30.2276 17.8041C29.3545 16.7454 28.2559 15.8951 27.0121 15.3154C25.7683 14.7356 24.4107 14.4409 23.0384 14.4529C21.6662 14.4649 20.3139 14.7832 19.0805 15.3847C17.847 15.9861 16.7634 16.8555 15.9089 17.9293C12.1499 15.951 7.98176 14.8756 3.7349 14.7882C4.36097 13.7893 5.17624 12.9223 6.13485 12.2361ZM28.159 18.9697C26.2959 20.139 24.5468 21.4807 22.9345 22.977C21.3845 21.5404 19.7092 20.2453 17.9285 19.1071C18.5653 18.3832 19.3469 17.8009 20.2227 17.3978C21.0985 16.9947 22.0492 16.7797 23.0132 16.7668C23.9773 16.7538 24.9333 16.9432 25.8197 17.3226C26.706 17.7021 27.5029 18.2632 28.159 18.9697ZM2.31406 19.6323C2.31552 18.7691 2.4403 17.9105 2.68461 17.0826C9.01333 17.0826 14.4635 19.0188 19.5849 23.139C12.758 23.4114 5.81093 24.5426 2.31406 26.945V19.6323ZM2.37051 37.6859C3.06497 35.2663 10.79 32.7781 22.9345 32.7781C28.5442 32.7781 33.7564 33.3351 37.614 34.3437C41.0054 35.2295 43.1452 36.4541 43.5035 37.6761L2.37051 37.6859ZM43.555 34.3559C39.4815 31.5584 30.7282 30.4836 22.9419 30.4836C15.1555 30.4836 6.39497 31.5584 2.32879 34.3559V30.6456C2.32879 28.1205 10.2133 25.3941 22.9419 25.3941C28.5516 25.3941 33.7638 25.9487 37.6214 26.9573C41.3415 27.9389 43.5624 29.3106 43.5624 30.6382L43.555 34.3559ZM43.555 19.6323V26.945C40.0581 24.5426 33.111 23.4114 26.2817 23.139C31.4104 19.0237 36.8557 17.0777 43.1894 17.09C43.4313 17.9158 43.5544 18.7718 43.555 19.6323Z" fill="#3A2C25"/>
<path d="M67.2671 27.579V15.765L62.0311 23.047H61.5031L56.3331 15.765V27.579H53.8691V12.179C54.8371 12.179 55.7391 12.179 56.7291 12.179L61.8111 19.395L66.8711 12.179H69.7311V27.579H67.2671Z" fill="#282828"/>
<path d="M81.1055 18.427L81.1715 16.711H83.3715C83.3715 20.319 83.3715 23.949 83.3715 27.557H81.2155L81.1055 25.797C80.3795 27.183 78.7075 27.843 77.3655 27.843C74.1975 27.865 71.7995 25.819 71.7995 22.123C71.7995 18.493 74.2855 16.469 77.4095 16.469C78.9495 16.469 80.4235 17.195 81.1055 18.427ZM77.5855 18.537C75.6495 18.537 74.0655 19.901 74.0655 22.123C74.0655 24.367 75.6495 25.731 77.5855 25.731C82.2715 25.731 82.2715 18.537 77.5855 18.537Z" fill="#282828"/>
<path d="M94.0198 16.689H96.5058L91.9078 27.601H89.4218L84.8018 16.689H87.3098L88.7618 20.187L90.6758 25.225L92.3918 20.627L94.0198 16.689Z" fill="#282828"/>
<path d="M97.7737 16.711H100.04V22.519C100.04 24.367 101.096 25.643 102.988 25.643C104.77 25.643 106.002 24.169 106.002 22.365V16.711H108.268V27.579H106.222L106.09 25.973C105.034 27.183 103.868 27.733 102.35 27.733C99.6877 27.733 97.7737 25.819 97.7737 22.541V16.711Z" fill="#282828"/>
<path d="M121.372 27.557H119.084V21.749C119.084 19.879 118.028 18.625 116.158 18.625C114.354 18.625 113.122 20.099 113.122 21.881V27.557H110.856V16.689H112.924L113.056 18.273C114.09 17.107 115.3 16.535 116.708 16.535C119.348 16.535 121.372 18.405 121.372 21.727V27.557Z" fill="#282828"/>
<path d="M128.69 16.491C132.034 16.491 134.322 18.955 134.322 22.145C134.322 25.357 132.1 27.777 128.69 27.777C125.302 27.777 123.102 25.357 123.102 22.145C123.102 18.955 125.324 16.491 128.69 16.491ZM128.69 18.581C126.622 18.581 125.368 20.231 125.368 22.145C125.368 24.081 126.622 25.665 128.69 25.665C130.78 25.665 132.034 24.081 132.034 22.145C132.034 20.231 130.67 18.581 128.69 18.581Z" fill="#282828"/>
<path d="M141.162 18.119L145.21 12.157H147.916V12.267L142.702 19.747L148.136 27.491V27.557H145.342L141.162 21.463L136.96 27.557H134.166V27.491L139.578 19.747L134.386 12.267V12.157H137.092L141.162 18.119Z" fill="#282828"/>
</svg>
